<svg id="Layer_1" data-name="Layer 1" xmlns="http://www.w3.org/2000/svg" viewBox="0 0 962.19 710.01"><defs><style>.cls-1,.cls-2,.cls-3,.cls-5{fill:none;}.cls-1,.cls-2,.cls-3,.cls-4,.cls-5,.cls-6{stroke:#000;}.cls-1,.cls-2,.cls-3,.cls-5,.cls-6{stroke-miterlimit:10;}.cls-1{stroke-width:6px;}.cls-2{stroke-width:2px;}.cls-3{stroke-width:4px;}.cls-5{stroke-width:3px;}</style></defs><polyline class="cls-1" points="950.51 163.01 861.44 163.01 714.6 273.4 748.3 323.02 682.1 372.63 689.32 403.64 648.4 373.87 659.23 423.49 617.11 396.2 629.14 445.81 587.02 417.29 590.63 438.37 528.12 485.22 451.01 373.87 500.36 337.9 516.53 361.85 644.03 266.74 629.14 244.88 672.31 212.42 714.6 273.4"/><polyline class="cls-1" points="500.36 337.9 485.52 315.77 613.5 222.15 629.14 244.88"/><polyline class="cls-1" points="491.93 430.93 347.02 540 264.45 540.08 254.19 562.76 236.72 514.65 217.51 562.41 201.39 514.65 182.6 562.41 164.78 514.65 153.72 540.08 11.68 540"/><line class="cls-2" x1="860.24" y1="710.01" x2="861.44" y2="163.01"/><path class="cls-1" d="M998.22,29.26" transform="translate(-236.68 -28.73)"/><line class="cls-2" x1="861.44" y1="163.01" x2="761.54" y2="0.52"/><line class="cls-2" x1="347.02" y1="540" x2="248.32" y2="371.31"/><line class="cls-2" x1="69.46" y1="710.01" x2="69.46" y2="540.03"/><line class="cls-2" x1="347.26" y1="668.42" x2="347.02" y2="540"/><line class="cls-2" x1="506.4" y1="542.57" x2="347.02" y2="542.49"/><line class="cls-3" x1="271.76" y1="386.56" x2="762.65" y2="25.05"/><path d="M498.72,422.45c5.82-1.67,13.63-2.95,19.4-2.48l-8.41-5.62-2.87-9.69C505.59,410.31,502,417.39,498.72,422.45Z" transform="translate(-236.68 -28.73)"/><path d="M1009.05,46.62c-3.32,5.07-6.86,12.14-8.12,17.8l-2.87-9.7-8.41-5.62C995.42,49.58,1003.23,48.29,1009.05,46.62Z" transform="translate(-236.68 -28.73)"/><line class="cls-3" x1="81.53" y1="624.43" x2="335.43" y2="624.43"/><path d="M306.14,653.16c5.68,2.11,12.73,5.7,17.1,9.51l-3.44-9.51,3.44-9.51C318.87,647.46,311.82,651.05,306.14,653.16Z" transform="translate(-236.68 -28.73)"/><path d="M584.18,653.16c-5.68,2.11-12.73,5.7-17.1,9.51l3.44-9.51-3.44-9.51C571.45,647.46,578.5,651.05,584.18,653.16Z" transform="translate(-236.68 -28.73)"/><line class="cls-3" x1="81.53" y1="695.13" x2="846.96" y2="695.13"/><path d="M306.14,723.86c5.68,2.11,12.73,5.7,17.1,9.51l-3.44-9.51,3.44-9.51C318.87,718.16,311.82,721.75,306.14,723.86Z" transform="translate(-236.68 -28.73)"/><path d="M1095.71,723.86c-5.68,2.11-12.73,5.7-17.09,9.51l3.44-9.51-3.44-9.51C1083,718.16,1090,721.75,1095.71,723.86Z" transform="translate(-236.68 -28.73)"/><path class="cls-4" d="M714.72,203.22a10.17,10.17,0,0,1,.31-2.43l3.82-18.24h-6.19l.73-3.58h10.53l-4.61,22.24a7.67,7.67,0,0,0-.19,1.7,2.38,2.38,0,0,0,2.67,2.6,7.44,7.44,0,0,0,3.63-1l1,3.4a13.08,13.08,0,0,1-5.9,1.35C717.14,209.26,714.72,207.13,714.72,203.22Z" transform="translate(-236.68 -28.73)"/><path class="cls-4" d="M735,206.73h2.86l.68,6.53.11,2.41h.09l1-2.36,3.41-6.58H746l-3.1,16.07h-2.3l1.52-7.7c.27-1.41,1.06-4.15,1.47-5.61h-.09c-.17.34-1.41,3.06-1.71,3.63l-2.69,5.34h-1.73l-.61-5.12c0-.32-.23-3.5-.29-3.85h-.09c-.17,1.71-.41,4.13-.64,5.27l-1.59,8h-2.23Z" transform="translate(-236.68 -28.73)"/><path class="cls-4" d="M692.23,692.26a10.17,10.17,0,0,1,.31-2.43l3.82-18.24h-6.19l.73-3.57h10.53l-4.61,22.23a7.74,7.74,0,0,0-.19,1.7,2.39,2.39,0,0,0,2.67,2.61,7.49,7.49,0,0,0,3.63-1l1,3.41A13.08,13.08,0,0,1,698,698.3C694.65,698.3,692.23,696.17,692.23,692.26Z" transform="translate(-236.68 -28.73)"/><path class="cls-4" d="M712.53,695.77h2.86l.68,6.53.11,2.42h.09l1-2.36,3.41-6.59h2.84l-3.1,16.07h-2.3l1.52-7.7c.27-1.41,1.06-4.14,1.47-5.61H721c-.17.34-1.41,3.06-1.71,3.64l-2.69,5.33h-1.73l-.61-5.11c0-.33-.23-3.5-.29-3.86h-.09c-.17,1.71-.42,4.14-.64,5.27l-1.59,8h-2.23Z" transform="translate(-236.68 -28.73)"/><path class="cls-4" d="M730.59,698h-4.94l.42-2.25h12.5l-.44,2.25h-4.94l-2.66,13.82h-2.6Z" transform="translate(-236.68 -28.73)"/><path class="cls-4" d="M435.93,627.77a10.14,10.14,0,0,1,.3-2.44l3.82-18.24h-6.18l.73-3.57h10.52l-4.61,22.23a7.74,7.74,0,0,0-.19,1.7,2.39,2.39,0,0,0,2.67,2.61,7.5,7.5,0,0,0,3.64-1l1,3.41a13.08,13.08,0,0,1-5.9,1.35C438.34,633.81,435.93,631.67,435.93,627.77Z" transform="translate(-236.68 -28.73)"/><path class="cls-4" d="M460,633.52H455l.42-2.25H468l-.44,2.25h-4.94l-2.66,13.82h-2.6Z" transform="translate(-236.68 -28.73)"/><path class="cls-4" d="M895.36,476.34h10.25c6.83,0,11.89,2.47,11.89,9.91,0,7.2-5.16,10.43-11.89,10.43h-4.7V508.5h-5.55Zm9.81,15.77c4.63,0,6.85-1.92,6.85-5.86s-2.32-5.34-6.85-5.34h-4.26v11.2Z" transform="translate(-236.68 -28.73)"/><path class="cls-4" d="M924.7,476.34h20v4.81H930.25v8.22h12.24v4.81H930.25v9.51h14.93v4.81H924.7Z" transform="translate(-236.68 -28.73)"/><path class="cls-4" d="M744.6,262.23c0-10.51,6.2-16.76,14.45-16.76a12.4,12.4,0,0,1,8.94,4l-3.1,3.57a7.86,7.86,0,0,0-5.84-2.6c-5.18,0-8.74,4.41-8.74,11.61s3.56,11.78,8.88,11.78a8.19,8.19,0,0,0,6.29-3.18l3.1,3.46a12.34,12.34,0,0,1-10,4.69C750.9,278.8,744.6,272.89,744.6,262.23Z" transform="translate(-236.68 -28.73)"/><path class="cls-4" d="M775.3,246.06h20v4.81H780.85v8.22h12.24v4.81H780.85v9.5h14.93v4.81H775.3Z" transform="translate(-236.68 -28.73)"/><path class="cls-4" d="M440.36,485.29h-9.83v-4.81h25.21v4.81h-9.83v27.35h-5.55Z" transform="translate(-236.68 -28.73)"/><path class="cls-5" d="M686.75,571.22c0-1.14,10.07-34.64-11.12-56.5" transform="translate(-236.68 -28.73)"/><path d="M668.73,508.85c4.25,1.6,10,3,14.36,3l-6.62,3.71-2.71,7.08C673.15,518.33,670.92,512.84,668.73,508.85Z" transform="translate(-236.68 -28.73)"/><path d="M703.08,536.56c0-8.16,4.89-12.95,10.15-12.95,2.93,0,5.75,1.4,7.24,5.55h.13l.88-4.95h5.46c-1.24,5.93-3,13.71-3,17.75a2.12,2.12,0,0,0,2.29,2.35,4.66,4.66,0,0,0,1.59-.33l.71,4.24a8.39,8.39,0,0,1-3.62.73c-3,0-4.93-1.29-5.35-4.45h-.16c-1.84,3-4,4.45-7,4.45C706.84,549,703.08,544.44,703.08,536.56Zm16,1.39.32-4.35c-1.09-4-3.32-5.28-5.09-5.28-2.79,0-5.53,2.6-5.53,8.17,0,5.12,1.88,7.75,4.92,7.75C716.29,544.24,718.81,541.4,719.06,538Z" transform="translate(-236.68 -28.73)"/><circle class="cls-6" cx="11.68" cy="540" r="11.18"/><circle class="cls-6" cx="950.51" cy="163.01" r="11.18"/></svg>